<svg width="283" height="95" viewBox="0 0 283 95" fill="none" xmlns="http://www.w3.org/2000/svg">
<path d="M2.28 57.84C2.28 55.0667 2.85333 52.6 4 50.44C5.17333 48.2533 6.82667 46.56 8.96 45.36C11.0933 44.1333 13.5467 43.52 16.32 43.52C19.84 43.52 22.8 44.4667 25.2 46.36C27.6 48.2267 29.1467 50.7733 29.84 54H21.4C20.8933 52.9333 20.1867 52.12 19.28 51.56C18.4 51 17.3733 50.72 16.2 50.72C14.3867 50.72 12.9333 51.3733 11.84 52.68C10.7733 53.96 10.24 55.68 10.24 57.84C10.24 60.0267 10.7733 61.7733 11.84 63.08C12.9333 64.36 14.3867 65 16.2 65C17.3733 65 18.4 64.72 19.28 64.16C20.1867 63.6 20.8933 62.7867 21.4 61.72H29.84C29.1467 64.9467 27.6 67.5067 25.2 69.4C22.8 71.2667 19.84 72.2 16.32 72.2C13.5467 72.2 11.0933 71.6 8.96 70.4C6.82667 69.1733 5.17333 67.48 4 65.32C2.85333 63.1333 2.28 60.64 2.28 57.84ZM37.5125 47.48C36.1258 47.48 35.0058 47.1067 34.1525 46.36C33.3258 45.5867 32.9125 44.6267 32.9125 43.48C32.9125 42.3067 33.3258 41.3333 34.1525 40.56C35.0058 39.7867 36.1258 39.4 37.5125 39.4C38.8725 39.4 39.9658 39.7867 40.7925 40.56C41.6458 41.3333 42.0725 42.3067 42.0725 43.48C42.0725 44.6267 41.6458 45.5867 40.7925 46.36C39.9658 47.1067 38.8725 47.48 37.5125 47.48ZM41.3925 49.56V72H33.5525V49.56H41.3925ZM60.5372 49.36C63.1239 49.36 65.1772 50.2267 66.6972 51.96C68.2172 53.6667 68.9772 55.9867 68.9772 58.92V72H61.1372V59.96C61.1372 58.68 60.8039 57.68 60.1372 56.96C59.4705 56.2133 58.5772 55.84 57.4572 55.84C56.2839 55.84 55.3639 56.2133 54.6972 56.96C54.0305 57.68 53.6972 58.68 53.6972 59.96V72H45.8572V49.56H53.6972V52.76C54.3905 51.7467 55.3239 50.9333 56.4972 50.32C57.6705 49.68 59.0172 49.36 60.5372 49.36ZM94.7191 60.52C94.7191 61.1333 94.6791 61.7467 94.5991 62.36H79.7591C79.8391 63.5867 80.1724 64.5067 80.7591 65.12C81.3724 65.7067 82.1457 66 83.0791 66C84.3857 66 85.3191 65.4133 85.8791 64.24H94.2391C93.8924 65.7867 93.2124 67.1733 92.1991 68.4C91.2124 69.6 89.9591 70.5467 88.4391 71.24C86.9191 71.9333 85.2391 72.28 83.3991 72.28C81.1857 72.28 79.2124 71.8133 77.4791 70.88C75.7724 69.9467 74.4257 68.6133 73.4391 66.88C72.4791 65.1467 71.9991 63.1067 71.9991 60.76C71.9991 58.4133 72.4791 56.3867 73.4391 54.68C74.3991 52.9467 75.7324 51.6133 77.4391 50.68C79.1724 49.7467 81.1591 49.28 83.3991 49.28C85.6124 49.28 87.5724 49.7333 89.2791 50.64C90.9857 51.5467 92.3191 52.8533 93.2791 54.56C94.2391 56.24 94.7191 58.2267 94.7191 60.52ZM86.7191 58.56C86.7191 57.6 86.3991 56.8533 85.7591 56.32C85.1191 55.76 84.3191 55.48 83.3591 55.48C82.3991 55.48 81.6124 55.7467 80.9991 56.28C80.3857 56.7867 79.9857 57.5467 79.7991 58.56H86.7191ZM130.848 43.8V72H123.008V56.44L117.688 72H111.128L105.768 56.32V72H97.9275V43.8H107.408L114.488 62.12L121.408 43.8H130.848ZM134.03 60.76C134.03 58.44 134.444 56.4133 135.27 54.68C136.124 52.9467 137.27 51.6133 138.71 50.68C140.177 49.7467 141.804 49.28 143.59 49.28C145.137 49.28 146.47 49.5867 147.59 50.2C148.71 50.8133 149.577 51.64 150.19 52.68V49.56H158.03V72H150.19V68.88C149.577 69.92 148.697 70.7467 147.55 71.36C146.43 71.9733 145.11 72.28 143.59 72.28C141.804 72.28 140.177 71.8133 138.71 70.88C137.27 69.9467 136.124 68.6133 135.27 66.88C134.444 65.12 134.03 63.08 134.03 60.76ZM150.19 60.76C150.19 59.32 149.79 58.1867 148.99 57.36C148.217 56.5333 147.257 56.12 146.11 56.12C144.937 56.12 143.964 56.5333 143.19 57.36C142.417 58.16 142.03 59.2933 142.03 60.76C142.03 62.2 142.417 63.3467 143.19 64.2C143.964 65.0267 144.937 65.44 146.11 65.44C147.257 65.44 148.217 65.0267 148.99 64.2C149.79 63.3733 150.19 62.2267 150.19 60.76ZM175.738 65.32V72H172.338C166.604 72 163.738 69.16 163.738 63.48V56.08H160.978V49.56H163.738V44.12H171.618V49.56H175.698V56.08H171.618V63.6C171.618 64.2133 171.751 64.6533 172.018 64.92C172.311 65.1867 172.791 65.32 173.458 65.32H175.738ZM187.174 53.52C188.054 52.24 189.12 51.2267 190.374 50.48C191.627 49.7333 192.974 49.36 194.414 49.36V57.72H192.214C190.507 57.72 189.24 58.0533 188.414 58.72C187.587 59.3867 187.174 60.5467 187.174 62.2V72H179.334V49.56H187.174V53.52ZM201.184 47.48C199.798 47.48 198.678 47.1067 197.824 46.36C196.998 45.5867 196.584 44.6267 196.584 43.48C196.584 42.3067 196.998 41.3333 197.824 40.56C198.678 39.7867 199.798 39.4 201.184 39.4C202.544 39.4 203.638 39.7867 204.464 40.56C205.318 41.3333 205.744 42.3067 205.744 43.48C205.744 44.6267 205.318 45.5867 204.464 46.36C203.638 47.1067 202.544 47.48 201.184 47.48ZM205.064 49.56V72H197.224V49.56H205.064ZM223.529 72L219.489 66.36L216.289 72H207.689L215.169 60.36L207.369 49.56H216.169L220.209 55.2L223.449 49.56H232.049L224.409 61L232.329 72H223.529ZM244.206 72.28C242.18 72.28 240.366 71.9467 238.766 71.28C237.193 70.5867 235.94 69.6533 235.006 68.48C234.1 67.28 233.593 65.9333 233.486 64.44H241.086C241.193 65.16 241.526 65.72 242.086 66.12C242.646 66.52 243.34 66.72 244.166 66.72C244.806 66.72 245.313 66.5867 245.686 66.32C246.06 66.0533 246.246 65.7067 246.246 65.28C246.246 64.72 245.94 64.3067 245.326 64.04C244.713 63.7733 243.7 63.48 242.286 63.16C240.686 62.84 239.353 62.48 238.286 62.08C237.22 61.68 236.286 61.0267 235.486 60.12C234.713 59.2133 234.326 57.9867 234.326 56.44C234.326 55.1067 234.686 53.9067 235.406 52.84C236.126 51.7467 237.18 50.88 238.566 50.24C239.98 49.6 241.673 49.28 243.646 49.28C246.58 49.28 248.886 50 250.566 51.44C252.246 52.88 253.22 54.7733 253.486 57.12H246.406C246.273 56.4 245.953 55.8533 245.446 55.48C244.966 55.08 244.313 54.88 243.486 54.88C242.846 54.88 242.353 55 242.006 55.24C241.686 55.48 241.526 55.8133 241.526 56.24C241.526 56.7733 241.833 57.1867 242.446 57.48C243.06 57.7467 244.046 58.0267 245.406 58.32C247.033 58.6667 248.38 59.0533 249.446 59.48C250.54 59.9067 251.486 60.6 252.286 61.56C253.113 62.4933 253.526 63.7733 253.526 65.4C253.526 66.7067 253.14 67.88 252.366 68.92C251.62 69.96 250.54 70.7867 249.126 71.4C247.74 71.9867 246.1 72.28 244.206 72.28ZM261.181 72.32C259.794 72.32 258.674 71.9467 257.821 71.2C256.994 70.4267 256.581 69.4533 256.581 68.28C256.581 67.1067 256.994 66.1333 257.821 65.36C258.674 64.5867 259.794 64.2 261.181 64.2C262.541 64.2 263.634 64.5867 264.461 65.36C265.314 66.1333 265.741 67.1067 265.741 68.28C265.741 69.4267 265.314 70.3867 264.461 71.16C263.634 71.9333 262.541 72.32 261.181 72.32Z" fill="white"/>
<path d="M17.3205 29.2935C16.7883 29.4311 16.3208 29.3282 15.918 28.9848C15.5152 28.6414 15.192 28.244 14.9484 27.7926C14.7047 27.3412 14.5545 26.9024 14.4977 26.4762C14.4674 26.0231 14.5586 25.7557 14.7713 25.674C15.4114 25.6955 16.3043 25.6349 17.4499 25.4923C18.6219 25.3229 19.847 25.1263 21.1252 24.9027C22.4033 24.6524 23.628 24.4025 24.7993 24.153C25.9707 23.9035 26.8891 23.7095 27.5547 23.5708C27.7676 23.5157 27.9684 23.6207 28.1573 23.8859C28.3461 24.1511 28.3094 24.5647 28.0473 25.1268C27.3133 26.7061 26.4733 28.353 25.5271 30.0673C24.6073 31.7548 23.7806 33.4015 23.0468 35.0075C22.3398 36.6133 21.8318 38.1107 21.523 39.4999C21.2411 40.9156 21.3708 42.1146 21.9121 43.0969C21.5959 43.5795 21.1713 43.8362 20.6382 43.8672C20.1054 43.9249 19.571 43.7958 19.0351 43.4801C18.5258 43.1642 18.082 42.6878 17.7035 42.0508C17.3252 41.4405 17.1192 40.6955 17.0854 39.8158C17.2345 38.4545 17.5848 37.2516 18.1364 36.2072C18.7148 35.1891 19.4003 34.2102 20.1927 33.2705C20.985 32.304 21.8171 31.324 22.6891 30.3302C23.5878 29.3363 24.4317 28.1694 25.2209 26.8297L24.429 27.8361C23.3987 29.0445 22.2352 30.2672 20.9385 31.5044C19.6682 32.7147 18.3036 33.8057 16.8448 34.7775C15.4128 35.7758 13.9258 36.5745 12.384 37.1736C10.8423 37.7994 9.31116 38.0784 7.79057 38.0107C6.10998 37.9442 4.77346 37.555 3.78102 36.843C2.78879 36.1577 2.10128 35.2298 1.71849 34.0596C1.36215 32.8624 1.2843 31.4763 1.48493 29.9013C1.71223 28.3261 2.19188 26.6288 2.9239 24.8095C3.68257 22.99 4.66737 21.102 5.87829 19.1455C7.11566 17.1621 8.55313 15.1905 10.1907 13.2305C11.5904 11.5392 13.0177 9.95427 14.4725 8.47582C15.9271 6.9707 17.3834 5.69224 18.8417 4.64044C20.2997 3.56197 21.7464 2.73694 23.1818 2.16534C24.6439 1.59353 26.0956 1.38181 27.5369 1.53018C28.0973 1.57899 28.6459 1.81458 29.1826 2.23692C29.746 2.65906 30.2172 3.21528 30.5961 3.90557C31.0017 4.59566 31.275 5.42015 31.4161 6.37904C31.557 7.31127 31.4986 8.33844 31.241 9.46055C31.0092 10.4758 30.5645 11.5594 29.9072 12.7114C29.2495 13.8368 28.5117 14.9361 27.6937 16.0094C26.8757 17.0827 26.0435 18.0628 25.1973 18.9496C24.3509 19.8098 23.6097 20.4825 22.9735 20.9676C22.6819 21.1833 22.3097 21.3197 21.8568 21.3767C21.4304 21.4068 20.9636 21.3972 20.4565 21.348C19.9761 21.2985 19.4954 21.209 19.0143 21.0796C18.533 20.9235 18.1183 20.7535 17.7702 20.5696C17.4487 20.3855 17.2205 20.2007 17.0857 20.0151C16.9506 19.8029 16.9758 19.616 17.1612 19.4545C17.6392 19.2106 18.196 18.8061 18.8314 18.241C19.4669 17.6758 20.1284 17.0305 20.8159 16.3049C21.53 15.5791 22.2439 14.8133 22.9574 14.0075C23.6709 13.2018 24.3314 12.4364 24.9389 11.7115C25.5464 10.9865 26.0612 10.3424 26.4834 9.77895C26.9322 9.21531 27.2356 8.81285 27.3937 8.57157C27.973 7.66019 28.1806 6.95183 28.0165 6.44647C27.8525 5.94111 27.3185 5.86542 26.4147 6.21939C24.8463 6.8454 23.1753 7.96558 21.4016 9.57995C19.6279 11.1943 17.7502 13.1429 15.7686 15.4256C15.0813 16.1778 14.2496 17.2112 13.2735 18.5258C12.3241 19.8402 11.3622 21.2613 10.3878 22.7892C9.41347 24.3172 8.51931 25.8711 7.70536 27.451C6.91808 29.0308 6.35628 30.462 6.01995 31.7448C5.68341 33.0009 5.6517 34.0278 5.92481 34.8256C6.22459 35.6232 6.98768 36.0038 8.21409 35.9672C9.28051 35.9319 10.4117 35.6561 11.6075 35.1398C12.8303 34.6499 14.0386 34.0268 15.2326 33.2705C16.453 32.4873 17.646 31.6243 18.8118 30.6815C20.0042 29.7385 21.1032 28.783 22.1088 27.8148C21.2314 28.1419 20.3538 28.4423 19.476 28.7161C18.5981 28.9899 17.8797 29.1823 17.3205 29.2935ZM25.4577 26.4278C25.4048 26.4815 25.3517 26.5086 25.2983 26.5091L25.3787 26.5484L25.4577 26.4278ZM46.3394 23.5792L45.3485 24.7072C44.7408 25.4055 44.1063 26.0906 43.445 26.7626C42.7838 27.4347 42.0419 28.0273 41.2193 28.5407C41.0071 28.6757 40.702 28.8782 40.3042 29.1481C39.9061 29.3913 39.5738 29.514 39.3071 29.5161C39.174 29.5439 39.0408 29.5583 38.9074 29.5593C38.8006 29.5335 38.6804 29.5078 38.5468 29.4823C38.1507 29.9655 37.7278 30.4356 37.2782 30.8925C36.8283 31.3228 36.3514 31.7134 35.8476 32.0641C35.6089 32.226 35.3171 32.4284 34.9724 32.6712C34.6277 32.914 34.243 33.1571 33.8183 33.4005C33.42 33.6171 33.0083 33.8204 32.5832 34.0105C32.1578 34.174 31.7719 34.2704 31.4255 34.2999C30.7592 34.3586 30.1714 34.2167 29.662 33.8741C29.0192 33.5326 28.4422 33.0839 27.931 32.528C27.4197 31.9454 27.1744 31.2941 27.1953 30.5739C27.2129 29.4537 27.5761 28.1974 28.2849 26.805C28.9935 25.3859 29.8894 24.0586 30.9728 22.8231C32.056 21.561 33.261 20.5246 34.5879 19.7139C35.9145 18.8765 37.2047 18.4794 38.4584 18.5226C39.0186 18.5448 39.5263 18.674 39.9816 18.9103C40.4368 19.1467 40.8793 19.4498 41.3089 19.8197C41.7393 20.2695 42.0092 20.6807 42.1189 21.0532C42.2284 21.399 42.2312 21.7456 42.1273 22.0931C42.343 22.3847 42.4129 22.7842 42.337 23.2915C42.2877 23.7986 42.0389 24.3606 41.5906 24.9775C41.2211 25.4605 40.9045 25.8764 40.6406 26.2253C40.3765 26.5474 40.1786 26.8023 40.0468 26.9901C39.9414 27.1509 39.9155 27.2445 39.969 27.2707C40.0492 27.2967 40.2354 27.2286 40.5274 27.0662C40.8461 26.9036 41.2042 26.6741 41.6019 26.3775C41.9993 26.0543 42.4097 25.691 42.8331 25.2875C43.2832 24.8839 43.7199 24.467 44.1431 24.0369C44.5661 23.5802 44.9626 23.1503 45.3327 22.7473L46.2046 21.7402C46.5491 21.4708 46.8555 21.4416 47.1239 21.6528C47.3921 21.8373 47.4344 22.1303 47.251 22.5318L46.3394 23.5792ZM31.6067 31.9783C31.8742 32.0828 32.2209 32.08 32.6467 31.9699C33.0992 31.8596 33.5776 31.6691 34.0821 31.3983C34.5864 31.1009 35.1168 30.7366 35.6734 30.3055C36.2299 29.8743 36.7596 29.4167 37.2623 28.9326C36.752 28.4834 36.4405 27.8859 36.3278 27.1401C36.2418 26.3941 36.3959 25.6595 36.7901 24.9363C36.9213 24.6685 37.119 24.3869 37.3833 24.0915C37.6476 23.796 37.9386 23.5136 38.2565 23.2444C38.5743 22.9752 38.9057 22.7325 39.2506 22.5163C39.5956 22.3002 39.9276 22.1375 40.2467 22.0283C40.456 21.5199 40.4003 21.227 40.0796 21.1496C39.6792 21.0995 39.0813 21.3577 38.2858 21.9241C37.5168 22.4637 36.7223 23.1501 35.9024 23.9834C35.0822 24.7901 34.3024 25.6497 33.5631 26.5624C32.8504 27.4748 32.35 28.2522 32.0619 28.8946C31.9307 29.1623 31.7864 29.4568 31.629 29.7781C31.4716 30.0994 31.3407 30.4071 31.2364 30.7013C31.1588 30.9952 31.1343 31.2621 31.1629 31.5019C31.2181 31.7415 31.3661 31.9003 31.6067 31.9783ZM61.9819 26.4131C61.6909 26.7088 61.2668 27.0322 60.7097 27.3834C60.1791 27.7343 59.6085 28.0723 58.9978 28.3972C58.9483 28.8776 58.8456 29.3718 58.6897 29.8797C58.5605 30.3875 58.3516 30.9358 58.063 31.5249C57.6168 32.4085 57.0355 33.0799 56.3192 33.539C55.6029 33.9981 54.8719 34.2974 54.1264 34.4367C53.4075 34.5758 52.7277 34.608 52.0871 34.5332C51.4467 34.485 50.9791 34.3821 50.6845 34.2245C49.7742 33.7785 49.3427 33.1819 49.3901 32.4349C49.4105 31.6613 49.7911 30.9116 50.5319 30.1856C50.8493 29.863 51.3536 29.5656 52.0448 29.2933C52.7359 29.0211 53.5468 28.7079 54.4773 28.3537C54.7097 27.4184 54.9152 26.4434 55.0937 25.4286C55.272 24.3871 55.438 23.4791 55.5917 22.7045C55.5913 22.6512 55.591 22.6112 55.5908 22.5845C55.617 22.531 55.6299 22.4775 55.6295 22.4242L55.1147 23.0684C54.9557 23.203 54.7831 23.2844 54.5966 23.3126C54.4366 23.3138 54.303 23.2749 54.1957 23.1958C54.0884 23.1166 54.0207 22.9972 53.9928 22.8374C53.9648 22.6776 54.0034 22.504 54.1086 22.3165L56.1653 19.4198C56.2397 18.7258 56.3542 18.0449 56.5088 17.3769C56.6634 16.709 56.9922 16.1463 57.4952 15.6889C57.998 15.2048 58.4084 14.8415 58.7264 14.5989C59.0445 14.3564 59.2965 14.1943 59.4825 14.1128C59.6952 14.0311 59.8417 14.0033 59.9219 14.0293C60.0285 14.0284 60.122 14.041 60.2022 14.067C60.3091 14.0928 60.4834 14.2114 60.7251 14.4228C60.9666 14.6075 61.1685 14.8459 61.3309 15.138C61.5199 15.4298 61.6291 15.7489 61.6586 16.0953C61.6879 16.4151 61.557 16.7228 61.266 17.0185C60.9751 17.3142 60.6837 17.5566 60.3919 17.7456C60.0999 17.908 59.8351 18.1501 59.5977 18.472C59.3601 18.7673 59.1634 19.1822 59.0077 19.7168C58.8521 20.2515 58.7651 21.0388 58.7468 22.079C58.7272 22.9592 58.7469 23.7457 58.8058 24.4386C58.8645 25.1048 58.9229 25.7311 58.981 26.3173C59.618 25.9388 60.3208 25.4664 61.0896 24.9002C61.5399 24.5232 61.9637 24.1598 62.3609 23.8099C62.7579 23.4334 63.1678 23.0167 63.5908 22.56C63.67 22.4527 63.7492 22.3587 63.8286 22.278C63.9344 22.1705 64.0135 22.0632 64.066 21.9561C64.4371 21.6864 64.7436 21.6573 64.9853 21.8687C65.2535 22.0532 65.2957 22.3329 65.1121 22.7077C64.6373 23.3515 64.149 23.9822 63.6473 24.5996C63.172 25.1901 62.6169 25.7946 61.9819 26.4131ZM51.1477 32.1407C51.0955 32.2744 51.1231 32.3942 51.2306 32.5C51.3382 32.6058 51.4853 32.658 51.6719 32.6565C51.8852 32.6547 52.1247 32.5861 52.3903 32.4507C52.6556 32.2885 52.9335 32.0196 53.2238 31.6439C53.3029 31.5366 53.3687 31.4294 53.4212 31.3223C53.5001 31.1883 53.579 31.0543 53.658 30.9204C53.1797 31.1376 52.7809 31.2875 52.4616 31.37C52.1689 31.4524 51.9294 31.521 51.7432 31.5758C51.5836 31.6305 51.4508 31.6982 51.3448 31.7791C51.2655 31.8597 51.1998 31.9802 51.1477 32.1407ZM74.8242 26.0694C74.1905 26.8479 73.6094 27.546 73.081 28.1636C72.5791 28.7543 72.1034 29.2915 71.654 29.7751C71.2046 30.2588 70.7548 30.7024 70.3047 31.1061C69.8813 31.5095 69.4178 31.9132 68.9144 32.3173C68.4908 32.6941 67.9738 33.0716 67.3635 33.4499C66.753 33.8015 66.1547 34.0196 65.5687 34.1044C65.2758 34.1601 64.9024 34.1498 64.4484 34.0734C63.9947 34.0237 63.6341 33.9466 63.3665 33.8421C63.0457 33.7381 62.671 33.5677 62.2424 33.3312C61.8136 33.068 61.3979 32.778 60.9953 32.4612C60.6192 32.1176 60.2963 31.7602 60.0266 31.389C59.7836 31.0176 59.6606 30.6453 59.6576 30.2719C59.6752 29.1518 59.9985 27.8958 60.6272 26.504C61.2825 25.0853 62.1118 23.7586 63.1152 22.5238C64.1453 21.2888 65.2837 20.2662 66.5306 19.4561C67.8039 18.6192 69.0674 18.2223 70.3211 18.2655C70.8546 18.2879 71.349 18.4172 71.8043 18.6536C72.2595 18.8899 72.7153 19.1929 73.1716 19.5626C73.6291 20.0656 73.8994 20.5167 73.9826 20.9161C74.0658 21.3154 74.0289 21.7024 73.872 22.077C73.7414 22.4247 73.5177 22.7865 73.2007 23.1624C72.8835 23.5117 72.5668 23.9276 72.2507 24.4101C72.0656 24.5983 71.8002 24.7605 71.4546 24.8966C71.1088 25.006 70.7762 25.0887 70.4566 25.1446C70.1368 25.1739 69.8834 25.1626 69.6963 25.1108C69.5359 25.0587 69.5617 24.9519 69.7737 24.7901C69.9591 24.6286 70.2235 24.3465 70.5669 23.9437C70.9368 23.5141 71.2667 23.0847 71.5566 22.6557C71.8731 22.2265 72.0833 21.8381 72.1872 21.4906C72.291 21.143 72.2094 20.9437 71.9423 20.8925C71.5419 20.8424 70.9709 21.127 70.2292 21.7464C69.5141 22.3655 68.7736 23.1315 68.0076 24.0444C67.2681 24.9304 66.5689 25.856 65.91 26.8214C65.2511 27.7867 64.7643 28.604 64.4497 29.2732C64.3185 29.541 64.1876 29.8354 64.0568 30.1564C63.9259 30.4508 63.8348 30.7316 63.7836 30.9987C63.7324 31.2658 63.7343 31.4924 63.7891 31.6787C63.8704 31.838 64.0445 31.9299 64.3113 31.9545C64.7915 31.9772 65.3902 31.8124 66.1074 31.4599C66.8513 31.1073 67.6475 30.6342 68.496 30.0406C69.3444 29.4204 70.2052 28.6935 71.0785 27.8597C71.9785 27.0258 72.8246 26.1256 73.6168 25.1591C74.1445 24.4615 74.6726 23.8039 75.201 23.1863C75.7558 22.5418 76.2446 21.9778 76.6673 21.4944C76.9852 21.2252 77.2783 21.1961 77.5467 21.4073C77.8148 21.5918 77.8572 21.8848 77.6738 22.2863C77.3043 22.7693 76.8823 23.3461 76.4077 24.0166C75.9598 24.6869 75.4319 25.3712 74.8242 26.0694ZM80.5912 13.7025C80.698 13.7283 80.8723 13.8469 81.1141 14.0583C81.3822 14.2428 81.6108 14.481 81.7998 14.7728C81.9887 15.0379 82.0978 15.3437 82.1273 15.6902C82.1834 16.0364 82.066 16.3574 81.775 16.653C81.0077 17.4059 80.3864 18.0643 79.9109 18.6282C79.4352 19.1653 79.2385 19.5803 79.3209 19.873C79.3482 19.9527 79.389 20.0457 79.4432 20.152C79.5238 20.2313 79.6443 20.297 79.8048 20.3491C80.0721 20.4269 80.4191 20.4641 80.8457 20.4607C81.2721 20.4306 81.6854 20.4139 82.0853 20.4107C82.4851 20.3808 82.845 20.3645 83.165 20.362C83.4848 20.3327 83.6715 20.3445 83.7253 20.3974C84.0205 20.6351 84.21 20.9802 84.2937 21.4329C84.4038 21.8587 84.4463 22.1783 84.4214 22.3919C84.4487 22.4717 84.2909 22.7396 83.9479 23.1957C83.6315 23.6516 83.2094 24.2151 82.6815 24.886C82.18 25.5301 81.6257 26.2412 81.0186 27.0195C80.4113 27.7711 79.8572 28.4956 79.3561 29.193C78.8024 29.9708 78.4605 30.5602 78.3303 30.9613C78.2269 31.3622 78.3615 31.5211 78.7342 31.4381C78.8411 31.4639 79.0932 31.3152 79.4906 30.9919C79.8878 30.6421 80.3642 30.1849 80.9196 29.6204C81.5017 29.0557 82.1232 28.4106 82.7841 27.6853C83.4449 26.9599 84.1056 26.2212 84.7662 25.4692C85.4535 24.717 86.101 23.9917 86.7088 23.2935C87.3429 22.5683 87.8845 21.9373 88.3335 21.4003C88.678 21.1308 88.9711 21.1018 89.2129 21.3132C89.481 21.4977 89.5234 21.7907 89.34 22.1922C88.918 22.7823 88.4038 23.4931 87.7971 24.3247C87.2169 25.1294 86.5704 25.9747 85.8575 26.8604C85.1713 27.746 84.4584 28.6318 83.7189 29.5178C82.9791 30.3771 82.2519 31.143 81.5373 31.8155C80.8227 32.4879 80.1471 33.0267 79.5103 33.4319C78.9 33.8101 78.3812 33.961 77.9539 33.8844C77.687 33.8599 77.3531 33.7826 76.952 33.6525C76.5774 33.4955 76.2026 33.3119 75.8275 33.1016C75.4792 32.891 75.1707 32.6669 74.9021 32.429C74.6599 32.1643 74.551 31.8852 74.5753 31.5916C74.5723 31.2183 74.6353 30.7644 74.7643 30.2301C74.8934 29.6957 75.1414 29.0403 75.5085 28.264C75.8756 27.4877 76.3882 26.5768 77.0465 25.5315C77.7048 24.4861 78.5884 23.279 79.6974 21.91C79.8029 21.7758 79.8159 21.7224 79.7361 21.7497C79.6827 21.7501 79.5631 21.7911 79.377 21.8726C79.2175 21.9272 79.0311 21.9687 78.818 21.9971C78.6047 21.9988 78.4042 21.9337 78.2164 21.8019C78.0842 21.9363 77.9122 22.0977 77.7003 22.2861C77.5152 22.4743 77.3697 22.6221 77.2639 22.7296C76.8927 22.9993 76.5731 23.0419 76.3049 22.8574C76.0632 22.646 76.0342 22.3529 76.2178 21.9781C76.3496 21.7903 76.4419 21.6562 76.4946 21.5758C76.5472 21.4954 76.5999 21.415 76.6526 21.3345C76.7053 21.2541 76.7712 21.1602 76.8504 21.0529C76.9562 20.9454 77.1145 20.7441 77.3255 20.4491C77.1077 19.8908 76.9303 19.3989 76.7936 18.9733C76.6566 18.5211 76.5866 18.1083 76.5836 17.735C76.607 17.3348 76.7106 16.9473 76.8942 16.5724C77.1043 16.1707 77.4342 15.7414 77.8838 15.2844C78.3866 14.8003 78.7971 14.4503 79.1154 14.2344C79.4601 13.9916 79.7255 13.8295 79.9115 13.748C80.124 13.6396 80.2703 13.5984 80.3505 13.6244C80.4574 13.6502 80.5376 13.6763 80.5912 13.7025ZM98.7678 25.8762C98.3981 26.3326 97.9756 26.8427 97.5001 27.4065C97.0511 27.9435 96.5755 28.494 96.0734 29.0581C95.5712 29.6222 95.0557 30.173 94.5267 30.7106C93.9974 31.2216 93.4811 31.6791 92.9777 32.0832C92.5538 32.4333 92.0235 32.8109 91.3868 33.216C90.7498 33.5945 90.1383 33.8261 89.5523 33.9109C89.2594 33.9666 88.886 33.9562 88.432 33.8799C87.9783 33.8302 87.6177 33.7531 87.3501 33.6486C87.0293 33.5445 86.6546 33.3742 86.226 33.1377C85.7972 32.8745 85.3815 32.5845 84.9789 32.2677C84.6028 31.9241 84.2799 31.5667 84.0102 31.1955C83.7672 30.8241 83.6442 30.4517 83.6412 30.0784C83.6588 28.9582 83.982 27.7023 84.6108 26.3105C85.2661 24.8918 86.0954 23.5651 87.0988 22.3303C88.1289 21.0953 89.2673 20.0727 90.5142 19.2626C91.7875 18.4257 93.051 18.0288 94.3047 18.072C94.8382 18.0944 95.3326 18.2237 95.7879 18.46C96.2431 18.6964 96.6989 18.9994 97.1552 19.369C97.5855 19.8189 97.8555 20.2301 97.9652 20.6025C98.0749 20.975 98.0778 21.335 97.9739 21.6825C97.8701 22.03 97.6862 22.3782 97.4223 22.727C97.1583 23.0491 96.8677 23.3982 96.5508 23.7741C95.9166 24.4992 95.2417 25.1313 94.526 25.6705C93.8103 26.2096 93.0939 26.6554 92.3767 27.0078C91.6862 27.3601 91.035 27.632 90.4232 27.8236C89.8114 28.0152 89.3056 28.126 88.9059 28.1559C88.8007 28.3434 88.7088 28.5175 88.6301 28.6781C88.5512 28.8121 88.4856 28.946 88.4333 29.0797C88.3021 29.3475 88.1711 29.6285 88.0401 29.9229C87.9091 30.2173 87.8181 30.4981 87.7669 30.7652C87.7157 31.0322 87.7175 31.2589 87.7724 31.4451C87.8539 31.6312 88.0281 31.7364 88.2949 31.7609C88.722 31.8108 89.2809 31.673 89.9717 31.3474C90.689 31.0216 91.4587 30.562 92.2806 29.9687C93.129 29.3485 94.0031 28.6214 94.9031 27.7875C95.8028 26.9269 96.6753 25.9865 97.5204 24.9663C98.0748 24.2684 98.6162 23.6107 99.1445 22.9931C99.6994 22.3486 100.175 21.7848 100.571 21.3015C100.889 21.0323 101.182 21.0033 101.45 21.2144C101.718 21.399 101.761 21.692 101.577 22.0934C101.208 22.5764 100.786 23.1532 100.311 23.8237C99.8365 24.4676 99.322 25.1517 98.7678 25.8762ZM95.9259 20.699C95.6591 20.6745 95.3134 20.7973 94.8889 21.0674C94.491 21.3373 94.054 21.7008 93.5776 22.158C93.1013 22.6152 92.599 23.1526 92.0706 23.7702C91.5687 24.3609 91.0935 24.9648 90.6452 25.5818C91.017 25.3921 91.4816 25.135 92.039 24.8105C92.5962 24.4593 93.2456 23.9741 93.9873 23.3547C94.2787 23.1124 94.5832 22.8432 94.9008 22.5473C95.2184 22.2514 95.4829 21.9826 95.6943 21.7409C95.9055 21.4725 96.037 21.2448 96.0888 21.0577C96.1673 20.8704 96.113 20.7508 95.9259 20.699ZM110.994 25.7776C110.624 26.2339 110.202 26.744 109.726 27.3079C109.277 27.8448 108.802 28.3954 108.3 28.9594C107.797 29.5235 107.282 30.0743 106.753 30.612C106.224 31.1229 105.707 31.5804 105.204 31.9845C104.78 32.3346 104.25 32.7122 103.613 33.1174C102.976 33.4959 102.364 33.7275 101.778 33.8122C101.486 33.8679 101.112 33.8576 100.658 33.7812C100.204 33.7316 99.8438 33.6545 99.5763 33.55C99.2554 33.4459 98.8807 33.2756 98.4521 33.039C98.0233 32.7758 97.6076 32.4858 97.2051 32.1691C96.829 31.8254 96.5061 31.468 96.2364 31.0968C95.9934 30.7254 95.8704 30.3531 95.8674 29.9798C95.885 28.8596 96.2082 27.6036 96.837 26.2118C97.4922 24.7932 98.3216 23.4664 99.325 22.2316C100.355 20.9966 101.493 19.9741 102.74 19.164C104.014 18.327 105.277 17.9301 106.531 17.9733C107.064 17.9957 107.559 18.1251 108.014 18.3614C108.469 18.5977 108.925 18.9007 109.381 19.2704C109.812 19.7203 110.082 20.1314 110.191 20.5039C110.301 20.8764 110.304 21.2363 110.2 21.5839C110.096 21.9314 109.912 22.2795 109.649 22.6283C109.384 22.9505 109.094 23.2995 108.777 23.6754C108.143 24.4005 107.468 25.0327 106.752 25.5718C106.036 26.1109 105.32 26.5567 104.603 26.9092C103.912 27.2614 103.261 27.5334 102.649 27.725C102.038 27.9166 101.532 28.0273 101.132 28.0572C101.027 28.2448 100.935 28.4188 100.856 28.5795C100.777 28.7134 100.712 28.8473 100.659 28.9811C100.528 29.2488 100.397 29.5299 100.266 29.8243C100.135 30.1187 100.044 30.3994 99.993 30.6665C99.9419 30.9336 99.9437 31.1603 99.9985 31.3465C100.08 31.5325 100.254 31.6378 100.521 31.6623C100.948 31.7122 101.507 31.5743 102.198 31.2487C102.915 30.9229 103.685 30.4634 104.507 29.8701C105.355 29.2499 106.229 28.5228 107.129 27.6888C108.029 26.8282 108.901 25.8878 109.747 24.8676C110.301 24.1698 110.842 23.5121 111.371 22.8945C111.926 22.25 112.401 21.6861 112.797 21.2029C113.115 20.9336 113.408 20.9046 113.676 21.1158C113.945 21.3003 113.987 21.5933 113.804 21.9948C113.434 22.4778 113.012 23.0545 112.537 23.7251C112.063 24.3689 111.548 25.0531 110.994 25.7776ZM108.152 20.6003C107.885 20.5758 107.54 20.6986 107.115 20.9687C106.717 21.2386 106.28 21.6022 105.804 22.0593C105.327 22.5165 104.825 23.0539 104.297 23.6716C103.795 24.2623 103.32 24.8661 102.871 25.4831C103.243 25.2934 103.708 25.0364 104.265 24.7118C104.822 24.3607 105.472 23.8754 106.213 23.2561C106.505 23.0137 106.809 22.7446 107.127 22.4487C107.445 22.1528 107.709 21.884 107.92 21.6423C108.132 21.3739 108.263 21.1461 108.315 20.959C108.393 20.7717 108.339 20.6522 108.152 20.6003ZM125.819 20.5378C125.772 21.3915 125.566 22.2199 125.199 23.0229C124.832 23.7992 124.398 24.5761 123.898 25.3535C123.397 26.1042 122.856 26.8552 122.276 27.6066C121.721 28.3311 121.207 29.0553 120.733 29.7791C120.496 30.1544 120.378 30.4087 120.379 30.542C120.46 30.648 120.659 30.5664 120.977 30.2972C121.322 30.0277 121.732 29.6377 122.208 29.1272C122.71 28.5898 123.265 27.972 123.873 27.2737C124.481 26.5755 125.088 25.8639 125.696 25.1389C126.33 24.3871 126.937 23.6622 127.518 22.9642C128.099 22.2395 128.614 21.6086 129.063 21.0716C129.408 20.8022 129.714 20.773 129.982 20.9842C130.251 21.1687 130.293 21.4617 130.11 21.8632C129.688 22.4533 129.173 23.1642 128.567 23.9957C127.96 24.8007 127.3 25.646 126.587 26.5318C125.901 27.3907 125.188 28.2498 124.448 29.1091C123.708 29.9685 122.981 30.7344 122.266 31.4068C121.578 32.0524 120.916 32.5778 120.279 32.9829C119.669 33.3612 119.137 33.5255 118.683 33.4758C118.416 33.4513 118.122 33.3603 117.801 33.2029C117.479 33.0455 117.171 32.8613 116.876 32.6503C116.608 32.4392 116.379 32.201 116.19 31.9359C116.002 31.6707 115.919 31.3914 115.944 31.0978C115.966 30.591 116.095 30.0432 116.33 29.4546C116.592 28.8659 116.907 28.25 117.275 27.607C117.801 26.696 118.355 25.8649 118.935 25.1135C119.516 24.3354 120.043 23.5312 120.516 22.7007C120.779 22.2452 120.976 21.8703 121.107 21.5759C121.264 21.2546 121.316 21.0541 121.262 20.9746C121.181 20.8686 120.955 20.9504 120.584 21.2201C120.239 21.4628 119.802 21.8397 119.273 22.3507C118.744 22.8616 118.149 23.4664 117.488 24.1651C116.853 24.8369 116.205 25.5355 115.545 26.2609C114.884 26.9862 114.236 27.6982 113.602 28.3966C112.994 29.0949 112.466 29.7125 112.017 30.2495C111.49 31.1338 111.07 31.8972 110.755 32.5397C110.44 33.1556 110.216 33.5308 110.084 33.6652C109.952 33.8263 109.739 33.8146 109.444 33.6303C109.149 33.4727 108.854 33.2218 108.558 32.8775C108.262 32.5332 107.992 32.162 107.749 31.764C107.532 31.339 107.422 30.9799 107.42 30.6866C107.419 30.5266 107.536 30.1923 107.772 29.6837C108.035 29.1749 108.35 28.5723 108.717 27.876C109.112 27.1795 109.532 26.4294 109.979 25.6258C110.453 24.8219 110.9 24.0583 111.321 23.3349C111.768 22.5846 112.149 21.9281 112.465 21.3656C112.807 20.7761 113.057 20.3474 113.215 20.0795C113.503 19.5171 113.713 19.1021 113.845 18.8344C114.002 18.5397 114.107 18.3389 114.16 18.2318C114.239 18.1245 114.278 18.0708 114.278 18.0708C114.278 18.0708 114.279 18.0842 114.279 18.1108C114.411 17.9231 114.624 17.9214 114.919 18.1057C115.24 18.2897 115.549 18.5539 115.845 18.8982C116.168 19.2423 116.438 19.6268 116.655 20.0517C116.898 20.4764 117.008 20.8356 116.983 21.1291C116.984 21.2091 116.931 21.3162 116.826 21.4504C116.72 21.5846 116.601 21.7189 116.469 21.8533C116.363 21.9875 116.245 22.1218 116.112 22.2562C116.007 22.3904 115.941 22.4709 115.914 22.4978C115.704 22.8462 115.519 23.1543 115.362 23.4223C115.23 23.69 115.099 23.9444 114.968 24.1855C115.628 23.3801 116.302 22.588 116.989 21.8091C117.702 21.03 118.377 20.3445 119.012 19.7527C119.674 19.1607 120.284 18.7024 120.841 18.3779C121.425 18.0265 121.93 17.8758 122.358 17.9256C122.625 17.9768 122.959 18.0808 123.36 18.2376C123.761 18.3943 124.136 18.5913 124.485 18.8285C124.86 19.0655 125.182 19.3429 125.452 19.6607C125.721 19.9519 125.843 20.2443 125.819 20.5378Z" fill="#FD4746"/>
</svg>
